<?xml version="1.0" encoding="UTF-8" standalone="no"?>
<!-- Generator: Adobe Illustrator 16.2.1, SVG Export Plug-In . SVG Version: 6.00 Build 0)  -->

<svg
   xmlns:dc="http://purl.org/dc/elements/1.1/"
   xmlns:cc="http://creativecommons.org/ns#"
   xmlns:rdf="http://www.w3.org/1999/02/22-rdf-syntax-ns#"
   xmlns:svg="http://www.w3.org/2000/svg"
   xmlns="http://www.w3.org/2000/svg"
   xmlns:sodipodi="http://sodipodi.sourceforge.net/DTD/sodipodi-0.dtd"
   xmlns:inkscape="http://www.inkscape.org/namespaces/inkscape"
   version="1.1"
   id="Layer_1"
   x="0px"
   y="0px"
   width="80"
   height="68"
   viewBox="0 0 80 68"
   enable-background="new 0 0 193 44"
   xml:space="preserve"
   inkscape:version="0.48.4 r9939"
   sodipodi:docname="plando-logotype0.svg"><metadata
   id="metadata3885"><rdf:RDF><cc:Work
       rdf:about=""><dc:format>image/svg+xml</dc:format><dc:type
         rdf:resource="http://purl.org/dc/dcmitype/StillImage" /><dc:title></dc:title></cc:Work></rdf:RDF></metadata><defs
   id="defs3883" /><sodipodi:namedview
   pagecolor="#ffffff"
   bordercolor="#666666"
   borderopacity="1"
   objecttolerance="10"
   gridtolerance="10"
   guidetolerance="10"
   inkscape:pageopacity="0"
   inkscape:pageshadow="2"
   inkscape:window-width="768"
   inkscape:window-height="469"
   id="namedview3881"
   showgrid="false"
   inkscape:zoom="1.4818653"
   inkscape:cx="96.5"
   inkscape:cy="22"
   inkscape:window-x="373"
   inkscape:window-y="67"
   inkscape:window-maximized="0"
   inkscape:current-layer="Layer_1" />




<path
   d="M 1.57483,41.181119 V 4.9811189 c 0,-1.3 1.1,-2.4 2.4,-2.4 h 9.7 c 14.1,0 22.4,7.6000001 22.4,20.4000001 0,13 -8.5,20.6 -22.7,20.6 h -9.3 c -1.4,0 -2.5,-1 -2.5,-2.4 z m 12,-1.4 c 11.5,0 18,-6.1 18,-16.7 0,-10.4 -6.7,-16.7000001 -17.9,-16.7000001 h -7.8 V 39.881119 h 7.7 z"
   id="path3869"
   inkscape:connector-curvature="0"
   style="fill:#525349" />
<path
   d="m 40.67483,28.481119 c 0,-9.1 6.5,-15.8 15.5,-15.8 9,0 15.5,6.7 15.5,15.9 0,9.1 -6.5,15.8 -15.5,15.8 -9,0 -15.5,-6.7 -15.5,-15.9 z m 26.8,0.1 c 0,-7 -4.8,-12.3 -11.3,-12.3 -6.5,0 -11.4,5.1 -11.4,12.2 0,7 4.9,12.3 11.4,12.3 6.5,0 11.3,-5.2 11.3,-12.2 z"
   id="path3871"
   inkscape:connector-curvature="0"
   style="fill:#525349" />




</svg>