<?xml version="1.0" encoding="UTF-8" standalone="no"?>
<!-- Generator: Adobe Illustrator 16.2.1, SVG Export Plug-In . SVG Version: 6.00 Build 0)  -->

<svg
   xmlns:dc="http://purl.org/dc/elements/1.1/"
   xmlns:cc="http://creativecommons.org/ns#"
   xmlns:rdf="http://www.w3.org/1999/02/22-rdf-syntax-ns#"
   xmlns:svg="http://www.w3.org/2000/svg"
   xmlns="http://www.w3.org/2000/svg"
   xmlns:sodipodi="http://sodipodi.sourceforge.net/DTD/sodipodi-0.dtd"
   xmlns:inkscape="http://www.inkscape.org/namespaces/inkscape"
   version="1.1"
   id="Layer_1"
   x="0px"
   y="0px"
   width="120"
   height="68"
   viewBox="0 0 120 68"
   enable-background="new 0 0 193 44"
   xml:space="preserve"
   inkscape:version="0.48.4 r9939"
   sodipodi:docname="plan-dot.svg"><metadata
   id="metadata3885"><rdf:RDF><cc:Work
       rdf:about=""><dc:format>image/svg+xml</dc:format><dc:type
         rdf:resource="http://purl.org/dc/dcmitype/StillImage" /><dc:title></dc:title></cc:Work></rdf:RDF></metadata><defs
   id="defs3883" /><sodipodi:namedview
   pagecolor="#ffffff"
   bordercolor="#666666"
   borderopacity="1"
   objecttolerance="10"
   gridtolerance="10"
   guidetolerance="10"
   inkscape:pageopacity="0"
   inkscape:pageshadow="2"
   inkscape:window-width="1261"
   inkscape:window-height="701"
   id="namedview3881"
   showgrid="false"
   inkscape:zoom="1.4818653"
   inkscape:cx="96.5"
   inkscape:cy="22"
   inkscape:window-x="0"
   inkscape:window-y="0"
   inkscape:window-maximized="0"
   inkscape:current-layer="Layer_1" />
<path
   d="m 4.9748252,41.881119 c 0,1.1 -0.6,2 -1.9,2 h -0.6 c -1.2,0 -1.80000003,-0.6 -1.80000003,-2 V 4.8811189 c 0,-1.3 1.10000003,-2.4 2.40000003,-2.4 H 13.574825 c 9.5,0 15,4.5 15,12.4000001 0,8.2 -5.3,12.6 -15.5,12.6 H 4.9748252 v 14.4 z m 8.4999998,-18.1 c 7.1,0 10.7,-3 10.7,-8.7 0,-5.7000001 -3.6,-8.7000001 -10.5,-8.7000001 H 4.9748252 V 23.781119 h 8.4999998 z"
   id="path3861"
   inkscape:connector-curvature="0"
   style="fill:#525349" />
<path
   d="M 34.074825,41.881119 V 0.78111888 c 0,-0.1 0.6,-0.4 1.4,-0.4 1.4,0 2.7,0.70000002 2.7,4.00000002 V 41.881119 c 0,1.5 -0.8,2 -1.8,2 h -0.4 c -1.1,0 -1.9,-0.5 -1.9,-2 z"
   id="path3863"
   inkscape:connector-curvature="0"
   style="fill:#525349" />
<path
   d="m 65.474825,24.481119 c 0,-5.2 -3,-8.1 -8.5,-8.1 -4.9,0 -8,2.5 -9.6,5.6 0,0.1 -2.3,-0.2 -2.3,-2.4 0,-2.2 4.3,-7 12.3,-7 7.6,0 12.2,4.4 12.2,11.7 v 19 c 0,0.1 -0.6,0.4 -1.4,0.4 -1.4,0 -2.6,-0.7 -2.6,-4 v -1.1 c -2.3,3.5 -6.4,5.6 -11.2,5.6 -6.6,0 -10.4,-3.4 -10.4,-8.4 0,-7 7,-10 20.9,-10.3 h 0.6 v -1 z m 0,7.1 v -2.8 l -1.8,0.1 c -10.3,0.4 -15.6,2.2 -15.6,7 0,3 2.5,5 6.6,5 6.2,0 10.8,-3.9 10.8,-9.3 z"
   id="path3865"
   inkscape:connector-curvature="0"
   style="fill:#525349" />
<path
   d="m 90.374825,12.681119 c 8,0 11.900005,5.3 11.900005,13.3 v 15.9 c 0,1.5 -0.8,2 -1.8,2 h -0.4 c -1.100005,0 -1.800005,-0.4 -1.800005,-2 v -15.7 c 0,-6 -3,-9.7 -8.1,-9.7 -4.7,0 -8.1,2.6 -9.9,6.4 v 19 c 0,1.5 -0.8,2 -1.8,2 h -0.4 c -1.1,0 -1.8,-0.4 -1.8,-2 v -28.3 c 0,-0.1 0.6,-0.4 1.4,-0.4 1.4,0 2.7,0.7 2.7,4 v 1 c 1.9,-3.3 5.3,-5.5 10,-5.5 z"
   id="path3867"
   inkscape:connector-curvature="0"
   style="fill:#525349" />


<path
   d="m 112.87483,43.981119 c -2.8,0 -5.1,-2.3 -5.1,-5.1 h 5.1 v 5.1 z"
   id="path3873"
   inkscape:connector-curvature="0"
   style="fill:#ffd100" />
<path
   d="m 117.97483,38.781119 c 0,2.8 -2.3,5.1 -5.1,5.1 v -5.1 h 5.1 z"
   id="path3875"
   inkscape:connector-curvature="0"
   style="fill:#ffd100" />
<path
   d="m 107.77483,38.781119 c 0,-2.8 2.3,-5.1 5.1,-5.1 v 5.1 h -5.1 z"
   id="path3877"
   inkscape:connector-curvature="0"
   style="fill:#ffd100" />
<path
   d="m 112.87483,33.681119 c 2.8,0 5.1,2.3 5.1,5.1 h -5.1 v -5.1 z"
   id="path3879"
   inkscape:connector-curvature="0"
   style="fill:#ffd100" />
</svg>